<svg>
    <defs>
    <symbol id="shoppingcart" xmlns="http://www.w3.org/2000/svg" viewBox="0 0 256 256" >
     <rect stroke="currentColor"  fill="currentColor"/><circle fill="currentColor" cx="80" cy="216" r="16"/><circle fill="currentColor" cx="184" cy="216" r="16"/><path d="M42.29,72H224l-28.52,92.71A16,16,0,0,1,180.18,176H84.07a16,16,0,0,1-15.39-11.6L32.51,37.8A8,8,0,0,0,24.82,32H8" fill="none" stroke="currentColor" stroke-linecap="round" stroke-linejoin="round" stroke-width="16"/>
    </symbol>
    <symbol id="listMenu"  xmlns="http://www.w3.org/2000/svg" viewBox="0 0 256 256" >
      <path  width="32" height="32" fill="currentColor" d="M224,128a8,8,0,0,1-8,8H40a8,8,0,0,1,0-16H216A8,8,0,0,1,224,128ZM40,72H216a8,8,0,0,0,0-16H40a8,8,0,0,0,0,16ZM216,184H40a8,8,0,0,0,0,16H216a8,8,0,0,0,0-16Z"></path>
    </symbol>
    <symbol id="closeMenu" xmlns="http://www.w3.org/2000/svg" viewBox="0 0 256 256">
      <path width="32" height="32" fill="currentColor" d="M205.66,194.34a8,8,0,0,1-11.32,11.32L128,139.31,61.66,205.66a8,8,0,0,1-11.32-11.32L116.69,128,50.34,61.66A8,8,0,0,1,61.66,50.34L128,116.69l66.34-66.35a8,8,0,0,1,11.32,11.32L139.31,128Z"   ><path/>

    </symbol>
    
    </defs>
   
</svg>
